<mxfile host="Electron" agent="Mozilla/5.0 (Windows NT 10.0; Win64; x64) AppleWebKit/537.36 (KHTML, like Gecko) draw.io/26.0.9 Chrome/128.0.6613.186 Electron/32.2.5 Safari/537.36" version="26.0.9">
  <diagram name="Page-1" id="jlvx2tYnrQinMtG0kMo0">
    <mxGraphModel dx="422" dy="272" grid="1" gridSize="10" guides="1" tooltips="1" connect="1" arrows="1" fold="1" page="1" pageScale="1" pageWidth="570" pageHeight="940" math="0" shadow="0">
      <root>
        <mxCell id="0" />
        <mxCell id="1" parent="0" />
        <mxCell id="XIPfSTXIO2PrzSZWnIrs-1" value="" style="shape=table;startSize=0;container=1;collapsible=0;childLayout=tableLayout;fillColor=none;" vertex="1" parent="1">
          <mxGeometry x="190" y="180" width="280" height="220" as="geometry" />
        </mxCell>
        <mxCell id="XIPfSTXIO2PrzSZWnIrs-2" value="" style="shape=tableRow;horizontal=0;startSize=0;swimlaneHead=0;swimlaneBody=0;strokeColor=inherit;top=0;left=0;bottom=0;right=0;collapsible=0;dropTarget=0;fillColor=none;points=[[0,0.5],[1,0.5]];portConstraint=eastwest;" vertex="1" parent="XIPfSTXIO2PrzSZWnIrs-1">
          <mxGeometry width="280" height="40" as="geometry" />
        </mxCell>
        <mxCell id="XIPfSTXIO2PrzSZWnIrs-3" value="E&lt;sub&gt;c&lt;/sub&gt;" style="shape=partialRectangle;html=1;whiteSpace=wrap;connectable=0;strokeColor=inherit;overflow=hidden;fillColor=none;top=0;left=0;bottom=0;right=0;pointerEvents=1;" vertex="1" parent="XIPfSTXIO2PrzSZWnIrs-2">
          <mxGeometry width="69" height="40" as="geometry">
            <mxRectangle width="69" height="40" as="alternateBounds" />
          </mxGeometry>
        </mxCell>
        <mxCell id="XIPfSTXIO2PrzSZWnIrs-4" value="t&lt;sub&gt;c&lt;/sub&gt;" style="shape=partialRectangle;html=1;whiteSpace=wrap;connectable=0;strokeColor=inherit;overflow=hidden;fillColor=none;top=0;left=0;bottom=0;right=0;pointerEvents=1;" vertex="1" parent="XIPfSTXIO2PrzSZWnIrs-2">
          <mxGeometry x="69" width="69" height="40" as="geometry">
            <mxRectangle width="69" height="40" as="alternateBounds" />
          </mxGeometry>
        </mxCell>
        <mxCell id="XIPfSTXIO2PrzSZWnIrs-5" value="Action" style="shape=partialRectangle;html=1;whiteSpace=wrap;connectable=0;strokeColor=inherit;overflow=hidden;fillColor=none;top=0;left=0;bottom=0;right=0;pointerEvents=1;" vertex="1" parent="XIPfSTXIO2PrzSZWnIrs-2">
          <mxGeometry x="138" width="142" height="40" as="geometry">
            <mxRectangle width="142" height="40" as="alternateBounds" />
          </mxGeometry>
        </mxCell>
        <mxCell id="XIPfSTXIO2PrzSZWnIrs-6" value="" style="shape=tableRow;horizontal=0;startSize=0;swimlaneHead=0;swimlaneBody=0;strokeColor=inherit;top=0;left=0;bottom=0;right=0;collapsible=0;dropTarget=0;fillColor=none;points=[[0,0.5],[1,0.5]];portConstraint=eastwest;" vertex="1" parent="XIPfSTXIO2PrzSZWnIrs-1">
          <mxGeometry y="40" width="280" height="40" as="geometry" />
        </mxCell>
        <mxCell id="XIPfSTXIO2PrzSZWnIrs-7" value="e&lt;sub&gt;0&lt;/sub&gt;" style="shape=partialRectangle;html=1;whiteSpace=wrap;connectable=0;strokeColor=inherit;overflow=hidden;fillColor=none;top=0;left=0;bottom=0;right=0;pointerEvents=1;" vertex="1" parent="XIPfSTXIO2PrzSZWnIrs-6">
          <mxGeometry width="69" height="40" as="geometry">
            <mxRectangle width="69" height="40" as="alternateBounds" />
          </mxGeometry>
        </mxCell>
        <mxCell id="XIPfSTXIO2PrzSZWnIrs-8" value="&#39;1&#39;" style="shape=partialRectangle;html=1;whiteSpace=wrap;connectable=0;strokeColor=inherit;overflow=hidden;fillColor=none;top=0;left=0;bottom=0;right=0;pointerEvents=1;" vertex="1" parent="XIPfSTXIO2PrzSZWnIrs-6">
          <mxGeometry x="69" width="69" height="40" as="geometry">
            <mxRectangle width="69" height="40" as="alternateBounds" />
          </mxGeometry>
        </mxCell>
        <mxCell id="XIPfSTXIO2PrzSZWnIrs-9" value="E&lt;sub&gt;c&lt;/sub&gt;&amp;nbsp;= M[e&lt;sub&gt;0&lt;/sub&gt;,&#39;1&#39;] = e&lt;sub&gt;0&lt;/sub&gt;&lt;div&gt;&lt;span style=&quot;font-size: 10px;&quot;&gt;t&lt;sub&gt;c&lt;/sub&gt;&amp;nbsp;=&amp;nbsp; t&lt;sub&gt;s &lt;/sub&gt;= &#39;0&#39;&lt;/span&gt;&lt;/div&gt;" style="shape=partialRectangle;html=1;whiteSpace=wrap;connectable=0;strokeColor=inherit;overflow=hidden;fillColor=none;top=0;left=0;bottom=0;right=0;pointerEvents=1;" vertex="1" parent="XIPfSTXIO2PrzSZWnIrs-6">
          <mxGeometry x="138" width="142" height="40" as="geometry">
            <mxRectangle width="142" height="40" as="alternateBounds" />
          </mxGeometry>
        </mxCell>
        <mxCell id="XIPfSTXIO2PrzSZWnIrs-10" value="" style="shape=tableRow;horizontal=0;startSize=0;swimlaneHead=0;swimlaneBody=0;strokeColor=inherit;top=0;left=0;bottom=0;right=0;collapsible=0;dropTarget=0;fillColor=none;points=[[0,0.5],[1,0.5]];portConstraint=eastwest;" vertex="1" parent="XIPfSTXIO2PrzSZWnIrs-1">
          <mxGeometry y="80" width="280" height="40" as="geometry" />
        </mxCell>
        <mxCell id="XIPfSTXIO2PrzSZWnIrs-11" value="e&lt;sub&gt;0&lt;/sub&gt;" style="shape=partialRectangle;html=1;whiteSpace=wrap;connectable=0;strokeColor=inherit;overflow=hidden;fillColor=none;top=0;left=0;bottom=0;right=0;pointerEvents=1;" vertex="1" parent="XIPfSTXIO2PrzSZWnIrs-10">
          <mxGeometry width="69" height="40" as="geometry">
            <mxRectangle width="69" height="40" as="alternateBounds" />
          </mxGeometry>
        </mxCell>
        <mxCell id="XIPfSTXIO2PrzSZWnIrs-12" value="&#39;0&#39;" style="shape=partialRectangle;html=1;whiteSpace=wrap;connectable=0;strokeColor=inherit;overflow=hidden;fillColor=none;top=0;left=0;bottom=0;right=0;pointerEvents=1;" vertex="1" parent="XIPfSTXIO2PrzSZWnIrs-10">
          <mxGeometry x="69" width="69" height="40" as="geometry">
            <mxRectangle width="69" height="40" as="alternateBounds" />
          </mxGeometry>
        </mxCell>
        <mxCell id="XIPfSTXIO2PrzSZWnIrs-13" value="E&lt;sub&gt;c&lt;/sub&gt;&amp;nbsp;= M[e&lt;sub&gt;0&lt;/sub&gt;,&#39;0&#39;] = e&lt;sub&gt;1&lt;/sub&gt;&lt;div&gt;&lt;span style=&quot;font-size: 10px;&quot;&gt;t&lt;sub&gt;c&lt;/sub&gt;&amp;nbsp;=&amp;nbsp; t&lt;sub&gt;s&amp;nbsp;&lt;/sub&gt;= &#39;1&#39;&lt;/span&gt;&lt;/div&gt;" style="shape=partialRectangle;html=1;whiteSpace=wrap;connectable=0;strokeColor=inherit;overflow=hidden;fillColor=none;top=0;left=0;bottom=0;right=0;pointerEvents=1;" vertex="1" parent="XIPfSTXIO2PrzSZWnIrs-10">
          <mxGeometry x="138" width="142" height="40" as="geometry">
            <mxRectangle width="142" height="40" as="alternateBounds" />
          </mxGeometry>
        </mxCell>
        <mxCell id="XIPfSTXIO2PrzSZWnIrs-14" value="" style="shape=tableRow;horizontal=0;startSize=0;swimlaneHead=0;swimlaneBody=0;strokeColor=inherit;top=0;left=0;bottom=0;right=0;collapsible=0;dropTarget=0;fillColor=none;points=[[0,0.5],[1,0.5]];portConstraint=eastwest;" vertex="1" parent="XIPfSTXIO2PrzSZWnIrs-1">
          <mxGeometry y="120" width="280" height="100" as="geometry" />
        </mxCell>
        <mxCell id="XIPfSTXIO2PrzSZWnIrs-15" value="e&lt;sub&gt;1&lt;/sub&gt;" style="shape=partialRectangle;html=1;whiteSpace=wrap;connectable=0;strokeColor=inherit;overflow=hidden;fillColor=none;top=0;left=0;bottom=0;right=0;pointerEvents=1;" vertex="1" parent="XIPfSTXIO2PrzSZWnIrs-14">
          <mxGeometry width="69" height="100" as="geometry">
            <mxRectangle width="69" height="100" as="alternateBounds" />
          </mxGeometry>
        </mxCell>
        <mxCell id="XIPfSTXIO2PrzSZWnIrs-16" value="&#39;1&#39;" style="shape=partialRectangle;html=1;whiteSpace=wrap;connectable=0;strokeColor=inherit;overflow=hidden;fillColor=none;top=0;left=0;bottom=0;right=0;pointerEvents=1;" vertex="1" parent="XIPfSTXIO2PrzSZWnIrs-14">
          <mxGeometry x="69" width="69" height="100" as="geometry">
            <mxRectangle width="69" height="100" as="alternateBounds" />
          </mxGeometry>
        </mxCell>
        <mxCell id="XIPfSTXIO2PrzSZWnIrs-17" value="E&lt;sub&gt;c&lt;/sub&gt;&amp;nbsp;= M[e&lt;sub&gt;1&lt;/sub&gt;,&#39;1&#39;] = e&lt;sub&gt;0&lt;/sub&gt;&lt;div&gt;&lt;span style=&quot;font-size: 10px;&quot;&gt;t&lt;sub&gt;c&lt;/sub&gt;&amp;nbsp;=&amp;nbsp; t&lt;sub&gt;s&amp;nbsp;&lt;/sub&gt;= &#39;#&#39;&lt;/span&gt;&lt;/div&gt;&lt;div&gt;&lt;span style=&quot;font-size: 10px;&quot;&gt;Since E&lt;sub&gt;c &lt;/sub&gt;&lt;/span&gt;&lt;span style=&quot;font-family: &amp;quot;Google Sans&amp;quot;, Arial, sans-serif; text-align: start;&quot;&gt;&lt;font style=&quot;font-size: 10px;&quot;&gt;&lt;font style=&quot;color: rgb(0, 0, 0);&quot;&gt;≠&amp;nbsp;&lt;/font&gt;&lt;/font&gt;&lt;/span&gt;&lt;span style=&quot;color: rgb(32, 33, 34); font-family: sans-serif; text-align: start;&quot;&gt;&lt;font style=&quot;font-size: 10px;&quot;&gt;&lt;span&gt;∅&lt;/span&gt; and&amp;nbsp;&lt;/font&gt;&lt;/span&gt;&lt;span style=&quot;background-color: transparent; color: light-dark(rgb(0, 0, 0), rgb(255, 255, 255)); font-size: 10px;&quot;&gt;E&lt;sub&gt;c&amp;nbsp;&lt;/sub&gt;&lt;/span&gt;&lt;span style=&quot;font-family: &amp;quot;Google Sans&amp;quot;, Arial, sans-serif; text-align: start;&quot;&gt;&lt;font style=&quot;font-size: 10px; color: rgb(0, 0, 0);&quot;&gt;∈ F :&lt;/font&gt;&lt;/span&gt;&lt;/div&gt;&lt;div&gt;&lt;span style=&quot;font-family: &amp;quot;Google Sans&amp;quot;, Arial, sans-serif; text-align: start;&quot;&gt;&lt;font style=&quot;font-size: 10px; color: rgb(0, 0, 0);&quot;&gt;token&amp;nbsp;&lt;/font&gt;&lt;/span&gt;&lt;span style=&quot;color: light-dark(rgb(0, 0, 0), rgb(0, 0, 0)); font-size: 10px; font-family: &amp;quot;Google Sans&amp;quot;, Arial, sans-serif; text-align: start; background-color: transparent;&quot;&gt;is regonized therefore codified and inserted in the symbole table&lt;/span&gt;&lt;/div&gt;" style="shape=partialRectangle;html=1;whiteSpace=wrap;connectable=0;strokeColor=inherit;overflow=hidden;fillColor=none;top=0;left=0;bottom=0;right=0;pointerEvents=1;" vertex="1" parent="XIPfSTXIO2PrzSZWnIrs-14">
          <mxGeometry x="138" width="142" height="100" as="geometry">
            <mxRectangle width="142" height="100" as="alternateBounds" />
          </mxGeometry>
        </mxCell>
      </root>
    </mxGraphModel>
  </diagram>
</mxfile>
